<svg xmlns="http://www.w3.org/2000/svg" xmlns:xlink="http://www.w3.org/1999/xlink" preserveAspectRatio="xMidYMid" width="108" height="18" viewBox="0 0 108 18">
  <defs>
    <style>
      .cls-1 {
        fill: #fff;
        fill-rule: evenodd;
      }
    </style>
  </defs>
  <path d="M104.205,1.994 L104.205,17.743 L102.077,17.743 L102.077,1.994 L98.294,1.994 L98.294,0.244 L107.988,0.244 L107.988,1.994 L104.205,1.994 ZM95.802,11.256 C95.431,11.748 94.966,12.097 94.407,12.306 C93.847,12.514 93.181,12.618 92.409,12.618 C92.046,12.618 91.636,12.593 91.179,12.543 C90.722,12.493 90.344,12.435 90.044,12.368 L90.044,17.743 L87.916,17.743 L87.916,0.494 C88.515,0.311 89.118,0.182 89.725,0.107 C90.332,0.032 90.990,-0.006 91.699,-0.006 C92.645,-0.006 93.449,0.098 94.111,0.306 C94.773,0.515 95.309,0.861 95.719,1.344 C96.129,1.828 96.428,2.469 96.617,3.269 C96.807,4.069 96.901,5.060 96.901,6.243 C96.901,7.460 96.810,8.477 96.629,9.293 C96.448,10.110 96.172,10.764 95.802,11.256 ZM94.596,3.994 C94.478,3.394 94.292,2.919 94.040,2.569 C93.788,2.219 93.469,1.973 93.083,1.831 C92.696,1.690 92.235,1.619 91.699,1.619 L90.044,1.619 L90.044,10.868 L91.699,10.868 C92.235,10.868 92.696,10.798 93.083,10.656 C93.469,10.514 93.788,10.268 94.040,9.918 C94.292,9.568 94.478,9.093 94.596,8.493 C94.714,7.893 94.773,7.143 94.773,6.243 C94.773,5.344 94.714,4.594 94.596,3.994 ZM82.615,13.243 L77.887,13.243 L76.823,17.743 L74.695,17.743 L78.714,0.244 L81.788,0.244 L85.807,17.743 L83.679,17.743 L82.615,13.243 ZM80.298,2.744 L80.204,2.744 L78.241,11.493 L82.261,11.493 L80.298,2.744 ZM69.909,4.744 L69.791,4.744 L66.363,15.493 L64.235,15.493 L60.806,4.744 L60.688,4.744 L59.979,17.743 L57.851,17.743 L58.796,0.244 L61.397,0.244 L65.251,12.243 L65.346,12.243 L69.200,0.244 L71.801,0.244 L72.747,17.743 L70.619,17.743 L69.909,4.744 ZM54.344,16.118 C53.903,16.801 53.371,17.285 52.748,17.568 C52.125,17.851 51.412,17.993 50.608,17.993 C49.805,17.993 49.091,17.851 48.469,17.568 C47.846,17.285 47.314,16.801 46.873,16.118 C46.431,15.435 46.096,14.514 45.868,13.355 C45.639,12.197 45.525,10.743 45.525,8.993 C45.525,7.244 45.639,5.790 45.868,4.631 C46.096,3.473 46.431,2.553 46.873,1.869 C47.314,1.186 47.846,0.703 48.469,0.419 C49.091,0.136 49.805,-0.006 50.608,-0.006 C51.412,-0.006 52.125,0.136 52.748,0.419 C53.371,0.703 53.903,1.186 54.344,1.869 C54.785,2.553 55.120,3.473 55.349,4.631 C55.577,5.790 55.692,7.244 55.692,8.993 C55.692,10.743 55.577,12.197 55.349,13.355 C55.120,14.514 54.785,15.435 54.344,16.118 ZM53.316,5.294 C53.150,4.327 52.933,3.561 52.666,2.994 C52.397,2.427 52.082,2.036 51.720,1.819 C51.357,1.603 50.987,1.494 50.608,1.494 C50.230,1.494 49.860,1.603 49.497,1.819 C49.134,2.036 48.819,2.427 48.551,2.994 C48.283,3.561 48.067,4.327 47.901,5.294 C47.736,6.260 47.653,7.493 47.653,8.993 C47.653,10.493 47.736,11.727 47.901,12.693 C48.067,13.660 48.283,14.427 48.551,14.993 C48.819,15.560 49.134,15.951 49.497,16.168 C49.860,16.384 50.230,16.493 50.608,16.493 C50.987,16.493 51.357,16.384 51.720,16.168 C52.082,15.951 52.397,15.560 52.666,14.993 C52.933,14.427 53.150,13.660 53.316,12.693 C53.481,11.727 53.564,10.493 53.564,8.993 C53.564,7.493 53.481,6.260 53.316,5.294 ZM40.796,9.743 L35.831,9.743 L35.831,17.743 L33.703,17.743 L33.703,0.244 L35.831,0.244 L35.831,7.993 L40.796,7.993 L40.796,0.244 L42.924,0.244 L42.924,17.743 L40.796,17.743 L40.796,9.743 ZM29.511,17.743 L26.555,10.243 L23.600,17.743 L21.472,17.743 L25.019,8.743 L21.827,0.244 L23.955,0.244 L26.555,7.244 L29.156,0.244 L31.284,0.244 L28.092,8.743 L31.639,17.743 L29.511,17.743 ZM11.714,0.244 L19.753,0.244 L19.753,1.994 L13.842,1.994 L13.842,7.743 L19.044,7.743 L19.044,9.493 L13.842,9.493 L13.842,15.993 L19.753,15.993 L19.753,17.743 L11.714,17.743 L11.714,0.244 ZM5.926,17.743 L3.798,17.743 L3.798,1.994 L0.015,1.994 L0.015,0.244 L9.709,0.244 L9.709,1.994 L5.926,1.994 L5.926,17.743 Z" class="cls-1"/>
</svg>
